<svg aria-hidden="true" style="position: absolute; width: 0; height: 0; overflow: hidden;" version="1.1" xmlns="http://www.w3.org/2000/svg" xmlns:xlink="http://www.w3.org/1999/xlink">
<defs>
<symbol id="icon-hourglass" viewBox="0 0 21 32">
<path d="M21.021 0.5c0-0.276-0.224-0.5-0.5-0.5h-20.042c-0.276 0-0.5 0.224-0.5 0.5s0.223 0.5 0.5 0.5h20.043c0.276 0 0.499-0.224 0.499-0.5zM20 6.112v-3.612c0-0.276-0.224-0.5-0.5-0.5h-17.918c-0.276 0-0.5 0.224-0.5 0.5v3.612c0 4.976 3.808 8.35 6.014 9.886-2.529 1.742-6.096 5.057-6.096 9.89v3.612c0 0.276 0.224 0.5 0.5 0.5h18c0.276 0 0.5-0.224 0.5-0.5v-3.583c0-4.962-3.863-8.365-6.095-9.916 2.529-1.742 6.095-5.056 6.095-9.889zM10.5 24.19l4.81 4.81h-9.62l4.81-4.81zM12.732 15.578c-0.145 0.091-0.232 0.251-0.232 0.422s0.087 0.331 0.232 0.422c1.885 1.195 6.268 4.513 6.268 9.495v3.083h-2.288c-0.009-0.011-0.013-0.025-0.023-0.035l-5.689-5.689v-0.776c0-0.276-0.224-0.5-0.5-0.5s-0.5 0.224-0.5 0.5v0.776l-5.689 5.689c-0.010 0.010-0.014 0.024-0.023 0.035h-2.288v-3.112c0-4.777 3.927-7.981 6.268-9.465 0.145-0.092 0.232-0.252 0.232-0.423s-0.087-0.331-0.232-0.422c-1.86-1.18-6.268-4.463-6.268-9.466v-3.112h17v3.112c0 4.778-3.927 7.981-6.268 9.466zM15.541 8.972h-9.814c-0.179 0-0.345 0.096-0.434 0.251-0.089 0.156-0.088 0.347 0.002 0.502 1.187 2.021 2.92 3.258 4.755 4.569l0.159 0.113c0.087 0.062 0.188 0.093 0.291 0.093s0.204-0.031 0.291-0.093c0.262-0.187 0.526-0.371 0.79-0.555 1.639-1.144 3.334-2.326 4.391-4.127 0.091-0.154 0.092-0.346 0.003-0.501-0.090-0.156-0.255-0.252-0.434-0.252zM11.008 13.031c-0.169 0.118-0.338 0.236-0.507 0.355-1.505-1.075-2.835-2.042-3.846-3.415h7.943c-0.941 1.212-2.234 2.114-3.59 3.060zM0.479 32h20.043c0.276 0 0.5-0.224 0.5-0.5s-0.224-0.5-0.5-0.5h-20.043c-0.276 0-0.5 0.224-0.5 0.5s0.223 0.5 0.5 0.5zM10.5 19c-0.276 0-0.5 0.224-0.5 0.5v1c0 0.276 0.224 0.5 0.5 0.5s0.5-0.224 0.5-0.5v-1c0-0.276-0.224-0.5-0.5-0.5zM10.5 16c-0.276 0-0.5 0.224-0.5 0.5v1c0 0.276 0.224 0.5 0.5 0.5s0.5-0.224 0.5-0.5v-1c0-0.276-0.224-0.5-0.5-0.5z"></path>
</symbol>
<symbol id="icon-document-diagrams" viewBox="0 0 32 32">
<path d="M19 3v6.002c0 1.111 0.898 1.998 2.006 1.998h4.994v17.003c0 1.107-0.894 1.997-1.997 1.997h-15.005c-1.107 0-1.997-0.899-1.997-2.007v-22.985c0-1.109 0.899-2.007 2.009-2.007h9.991zM20 3v5.997c0 0.554 0.451 1.003 0.991 1.003h5.009l-6-7zM11 21v4h3v-4h-3zM15 16v9h3v-9h-3zM19 19v6h3v-6h-3z"></path>
</symbol>
<symbol id="icon-currency-dollar" viewBox="0 0 20 20">
<path d="M10 20c-5.523 0-10-4.477-10-10s4.477-10 10-10v0c5.523 0 10 4.477 10 10s-4.477 10-10 10v0zM11 15h1c1.657 0 3-1.343 3-3s-1.343-3-3-3v0h-4.010c-0.552 0-1-0.448-1-1s0.448-1 1-1v0h6.010v-2h-3v-2h-2v2h-1c-1.657 0-3 1.343-3 3s1.343 3 3 3v0h4c0.552 0 1 0.448 1 1s-0.448 1-1 1v0h-6v2h3v2h2v-2z"></path>
</symbol>
<symbol id="icon-envelope" viewBox="0 0 20 20">
<path d="M18 2c1.105 0 2 0.895 2 2v0 12c0 1.105-0.895 2-2 2v0h-16c-1.105 0-2-0.895-2-2v0-12c0-1.1 0.9-2 2-2h16zM13.63 11.1l6.37 4.9v-2l-5.12-3.9 5.12-4.1v-2l-10 8-10-8v2l5.12 4.1-5.12 3.9v2l6.37-4.9 3.63 2.9 3.63-2.9z"></path>
</symbol>
<symbol id="icon-time1" viewBox="0 0 20 20">
<path d="M10 20c-5.523 0-10-4.477-10-10s4.477-10 10-10v0c5.523 0 10 4.477 10 10s-4.477 10-10 10v0zM10 18c4.418 0 8-3.582 8-8s-3.582-8-8-8v0c-4.418 0-8 3.582-8 8s3.582 8 8 8v0zM9 10.41v-6.41h2v5.59l3.95 3.95-1.41 1.41-4.54-4.54z"></path>
</symbol>
<symbol id="icon-timer" viewBox="0 0 20 20">
<path d="M16.32 7.1c1.044 1.339 1.675 3.045 1.675 4.898 0 4.418-3.582 8-8 8s-8-3.582-8-8c0-4.068 3.036-7.426 6.965-7.934l0.040-0.004v-2.060h2v2.060c1.46 0.18 2.8 0.76 3.9 1.62l1.46-1.46 1.42 1.42-1.46 1.45zM10 18c3.314 0 6-2.686 6-6s-2.686-6-6-6v0c-3.314 0-6 2.686-6 6s2.686 6 6 6v0zM7 0h6v2h-6v-2zM12.12 8.46l1.42 1.42-3.54 3.52-1.41-1.4 3.53-3.54z"></path>
</symbol>
<symbol id="icon-office" viewBox="0 0 32 32">
<path d="M0 32h16v-32h-16v32zM10 4h4v4h-4v-4zM10 12h4v4h-4v-4zM10 20h4v4h-4v-4zM2 4h4v4h-4v-4zM2 12h4v4h-4v-4zM2 20h4v4h-4v-4zM18 10h14v2h-14zM18 32h4v-8h6v8h4v-18h-14z"></path>
</symbol>
<symbol id="icon-phone" viewBox="0 0 32 32">
<path d="M22 20c-2 2-2 4-4 4s-4-2-6-4-4-4-4-6 2-2 4-4-4-8-6-8-6 6-6 6c0 4 4.109 12.109 8 16s12 8 16 8c0 0 6-4 6-6s-6-8-8-6z"></path>
</symbol>
<symbol id="icon-calendar" viewBox="0 0 32 32">
<path d="M10 12h4v4h-4zM16 12h4v4h-4zM22 12h4v4h-4zM4 24h4v4h-4zM10 24h4v4h-4zM16 24h4v4h-4zM10 18h4v4h-4zM16 18h4v4h-4zM22 18h4v4h-4zM4 18h4v4h-4zM26 0v2h-4v-2h-14v2h-4v-2h-4v32h30v-32h-4zM28 30h-26v-22h26v22z"></path>
</symbol>
<symbol id="icon-display" viewBox="0 0 32 32">
<path d="M0 2v20h32v-20h-32zM30 20h-28v-16h28v16zM21 24h-10l-1 4-2 2h16l-2-2z"></path>
</symbol>
<symbol id="icon-user-plus" viewBox="0 0 32 32">
<path d="M12 23c0-4.726 2.996-8.765 7.189-10.319 0.509-1.142 0.811-2.411 0.811-3.681 0-4.971 0-9-6-9s-6 4.029-6 9c0 3.096 1.797 6.191 4 7.432v1.649c-6.784 0.555-12 3.888-12 7.918h12.416c-0.271-0.954-0.416-1.96-0.416-3z"></path>
<path d="M23 14c-4.971 0-9 4.029-9 9s4.029 9 9 9c4.971 0 9-4.029 9-9s-4.029-9-9-9zM28 24h-4v4h-2v-4h-4v-2h4v-4h2v4h4v2z"></path>
</symbol>
<symbol id="icon-user-tie" viewBox="0 0 32 32">
<path d="M10 6c0-3.314 2.686-6 6-6s6 2.686 6 6c0 3.314-2.686 6-6 6s-6-2.686-6-6zM24.002 14h-1.107l-6.222 12.633 2.327-11.633-3-3-3 3 2.327 11.633-6.222-12.633h-1.107c-3.998 0-3.998 2.687-3.998 6v10h24v-10c0-3.313 0-6-3.998-6z"></path>
</symbol>
<symbol id="icon-cogs" viewBox="0 0 32 32">
<path d="M11.366 22.564l1.291-1.807-1.414-1.414-1.807 1.291c-0.335-0.187-0.694-0.337-1.071-0.444l-0.365-2.19h-2l-0.365 2.19c-0.377 0.107-0.736 0.256-1.071 0.444l-1.807-1.291-1.414 1.414 1.291 1.807c-0.187 0.335-0.337 0.694-0.443 1.071l-2.19 0.365v2l2.19 0.365c0.107 0.377 0.256 0.736 0.444 1.071l-1.291 1.807 1.414 1.414 1.807-1.291c0.335 0.187 0.694 0.337 1.071 0.444l0.365 2.19h2l0.365-2.19c0.377-0.107 0.736-0.256 1.071-0.444l1.807 1.291 1.414-1.414-1.291-1.807c0.187-0.335 0.337-0.694 0.444-1.071l2.19-0.365v-2l-2.19-0.365c-0.107-0.377-0.256-0.736-0.444-1.071zM7 27c-1.105 0-2-0.895-2-2s0.895-2 2-2 2 0.895 2 2-0.895 2-2 2zM32 12v-2l-2.106-0.383c-0.039-0.251-0.088-0.499-0.148-0.743l1.799-1.159-0.765-1.848-2.092 0.452c-0.132-0.216-0.273-0.426-0.422-0.629l1.219-1.761-1.414-1.414-1.761 1.219c-0.203-0.149-0.413-0.29-0.629-0.422l0.452-2.092-1.848-0.765-1.159 1.799c-0.244-0.059-0.492-0.109-0.743-0.148l-0.383-2.106h-2l-0.383 2.106c-0.251 0.039-0.499 0.088-0.743 0.148l-1.159-1.799-1.848 0.765 0.452 2.092c-0.216 0.132-0.426 0.273-0.629 0.422l-1.761-1.219-1.414 1.414 1.219 1.761c-0.149 0.203-0.29 0.413-0.422 0.629l-2.092-0.452-0.765 1.848 1.799 1.159c-0.059 0.244-0.109 0.492-0.148 0.743l-2.106 0.383v2l2.106 0.383c0.039 0.251 0.088 0.499 0.148 0.743l-1.799 1.159 0.765 1.848 2.092-0.452c0.132 0.216 0.273 0.426 0.422 0.629l-1.219 1.761 1.414 1.414 1.761-1.219c0.203 0.149 0.413 0.29 0.629 0.422l-0.452 2.092 1.848 0.765 1.159-1.799c0.244 0.059 0.492 0.109 0.743 0.148l0.383 2.106h2l0.383-2.106c0.251-0.039 0.499-0.088 0.743-0.148l1.159 1.799 1.848-0.765-0.452-2.092c0.216-0.132 0.426-0.273 0.629-0.422l1.761 1.219 1.414-1.414-1.219-1.761c0.149-0.203 0.29-0.413 0.422-0.629l2.092 0.452 0.765-1.848-1.799-1.159c0.059-0.244 0.109-0.492 0.148-0.743l2.106-0.383zM21 15.35c-2.402 0-4.35-1.948-4.35-4.35s1.948-4.35 4.35-4.35 4.35 1.948 4.35 4.35c0 2.402-1.948 4.35-4.35 4.35z"></path>
</symbol>
<symbol id="icon-stats-dots" viewBox="0 0 32 32">
<path d="M4 28h28v4h-32v-32h4zM9 26c-1.657 0-3-1.343-3-3s1.343-3 3-3c0.088 0 0.176 0.005 0.262 0.012l3.225-5.375c-0.307-0.471-0.487-1.033-0.487-1.638 0-1.657 1.343-3 3-3s3 1.343 3 3c0 0.604-0.179 1.167-0.487 1.638l3.225 5.375c0.086-0.007 0.174-0.012 0.262-0.012 0.067 0 0.133 0.003 0.198 0.007l5.324-9.316c-0.329-0.482-0.522-1.064-0.522-1.691 0-1.657 1.343-3 3-3s3 1.343 3 3c0 1.657-1.343 3-3 3-0.067 0-0.133-0.003-0.198-0.007l-5.324 9.316c0.329 0.481 0.522 1.064 0.522 1.691 0 1.657-1.343 3-3 3s-3-1.343-3-3c0-0.604 0.179-1.167 0.487-1.638l-3.225-5.375c-0.086 0.007-0.174 0.012-0.262 0.012s-0.176-0.005-0.262-0.012l-3.225 5.375c0.307 0.471 0.487 1.033 0.487 1.637 0 1.657-1.343 3-3 3z"></path>
</symbol>
<symbol id="icon-airplane" viewBox="0 0 32 32">
<path d="M24 19.999l-5.713-5.713 13.713-10.286-4-4-17.141 6.858-5.397-5.397c-1.556-1.556-3.728-1.928-4.828-0.828s-0.727 3.273 0.828 4.828l5.396 5.396-6.858 17.143 4 4 10.287-13.715 5.713 5.713v7.999h4l2-6 6-2v-4l-7.999 0z"></path>
</symbol>
<symbol id="icon-tasks" viewBox="0 0 28 28">
<path d="M16 22h10v-2h-10v2zM10 14h16v-2h-16v2zM20 6h6v-2h-6v2zM28 19v4c0 0.547-0.453 1-1 1h-26c-0.547 0-1-0.453-1-1v-4c0-0.547 0.453-1 1-1h26c0.547 0 1 0.453 1 1zM28 11v4c0 0.547-0.453 1-1 1h-26c-0.547 0-1-0.453-1-1v-4c0-0.547 0.453-1 1-1h26c0.547 0 1 0.453 1 1zM28 3v4c0 0.547-0.453 1-1 1h-26c-0.547 0-1-0.453-1-1v-4c0-0.547 0.453-1 1-1h26c0.547 0 1 0.453 1 1z"></path>
</symbol>
</defs>
</svg>
