<svg width="551" height="126" viewBox="0 0 551 126" fill="none" xmlns="http://www.w3.org/2000/svg">
<path d="M470.5 106L449 31.5H459.5L475.5 90H476.5L494 31.5H505L522.5 90H524L539.5 31.5H550L529 106H517.5L499.5 46H499L482 106H470.5Z" fill="white" stroke="white"/>
<path d="M405.5 30C455.5 30 457.5 106.5 405.5 107.5C354 107.5 353 30 405.5 30Z" fill="white" stroke="white"/>
<path d="M316 31V106.5H361V96.5H327V31H316Z" fill="white" stroke="white"/>
<path d="M255.5 31.5V106H266V74.5H300V64.5H266V41H302.5V31.5H255.5Z" fill="white" stroke="white"/>
<path d="M214 56V106H223.5V77.5C226.746 66.6584 231.237 64.2237 243 65V55H235.5C230.36 55.9248 227.815 58.2196 223.5 63.5V56H214Z" fill="white" stroke="white"/>
<path d="M156 26.5V106H165L165.5 76.5L167 72.5C169.366 66.4667 171.205 64.6345 179 64C185.239 64.5226 188.221 65.8055 190 72.5V106H199.5V68.5C196.578 58.8815 192.654 56.251 184 55.5C174.163 55.0313 170.376 57.6178 165.5 63.5V26.5H156Z" fill="white" stroke="white"/>
<path d="M98.5 125C72.3463 108.866 61.142 97.8808 60 70H19C9.3638 75.1278 3.79302 77.7612 0.5 92V121C0.768305 122.869 1.89078 123.686 4.5 125H98.5Z" fill="#7D84FF"/>
<path d="M98.5 125C72.3463 108.866 61.142 97.8808 60 70H19C9.3638 75.1278 3.79302 77.7612 0.5 92V121C0.768305 122.869 1.89078 123.686 4.5 125H98.5Z" fill="url(#paint0_linear)"/>
<path d="M98.5 125C72.3463 108.866 61.142 97.8808 60 70H19C9.3638 75.1278 3.79302 77.7612 0.5 92V121C0.768305 122.869 1.89078 123.686 4.5 125H98.5Z" stroke="black"/>
<path d="M98.9999 59C143.5 33.5 149.5 97 98.9999 121C49 99 53 32.5 98.9999 59Z" fill="#7D84FF"/>
<path d="M98.9999 59C143.5 33.5 149.5 97 98.9999 121C49 99 53 32.5 98.9999 59Z" fill="url(#paint1_linear)"/>
<path d="M98.9999 59C143.5 33.5 149.5 97 98.9999 121C49 99 53 32.5 98.9999 59Z" stroke="black"/>
<path d="M49.9998 0.999908C84.4996 0.999932 87 53.9999 49.9998 53.9999C12.9996 53.9999 15.5 0.999885 49.9998 0.999908Z" fill="#7D84FF"/>
<path d="M49.9998 0.999908C84.4996 0.999932 87 53.9999 49.9998 53.9999C12.9996 53.9999 15.5 0.999885 49.9998 0.999908Z" fill="url(#paint2_linear)"/>
<path d="M49.9998 0.999908C84.4996 0.999932 87 53.9999 49.9998 53.9999C12.9996 53.9999 15.5 0.999885 49.9998 0.999908Z" stroke="black"/>
<defs>
<linearGradient id="paint0_linear" x1="66" y1="97" x2="8.48318e-07" y2="97" gradientUnits="userSpaceOnUse">
<stop stop-color="#F265FF"/>
<stop offset="1" stop-color="white" stop-opacity="0"/>
</linearGradient>
<linearGradient id="paint1_linear" x1="135" y1="81" x2="63" y2="81.5" gradientUnits="userSpaceOnUse">
<stop stop-color="#F265FF"/>
<stop offset="1" stop-color="white" stop-opacity="0"/>
</linearGradient>
<linearGradient id="paint2_linear" x1="73" y1="27" x2="23" y2="27" gradientUnits="userSpaceOnUse">
<stop stop-color="#F265FF"/>
<stop offset="1" stop-color="white" stop-opacity="0"/>
</linearGradient>
</defs>
</svg>
