<svg width="136" height="126" viewBox="0 0 136 126" fill="none" xmlns="http://www.w3.org/2000/svg">
<path d="M98.5 125C72.3463 108.866 61.142 97.8808 60 70H19C9.3638 75.1278 3.79302 77.7612 0.5 92V121C0.768305 122.869 1.89078 123.686 4.5 125H98.5Z" fill="#7D84FF"/>
<path d="M98.5 125C72.3463 108.866 61.142 97.8808 60 70H19C9.3638 75.1278 3.79302 77.7612 0.5 92V121C0.768305 122.869 1.89078 123.686 4.5 125H98.5Z" fill="url(#paint0_linear)"/>
<path d="M98.5 125C72.3463 108.866 61.142 97.8808 60 70H19C9.3638 75.1278 3.79302 77.7612 0.5 92V121C0.768305 122.869 1.89078 123.686 4.5 125H98.5Z" stroke="black"/>
<path d="M98.9999 59C143.5 33.5 149.5 97 98.9999 121C49 99 53 32.5 98.9999 59Z" fill="#7D84FF"/>
<path d="M98.9999 59C143.5 33.5 149.5 97 98.9999 121C49 99 53 32.5 98.9999 59Z" fill="url(#paint1_linear)"/>
<path d="M98.9999 59C143.5 33.5 149.5 97 98.9999 121C49 99 53 32.5 98.9999 59Z" stroke="black"/>
<path d="M49.9998 0.999908C84.4996 0.999932 87 53.9999 49.9998 53.9999C12.9996 53.9999 15.5 0.999885 49.9998 0.999908Z" fill="#7D84FF"/>
<path d="M49.9998 0.999908C84.4996 0.999932 87 53.9999 49.9998 53.9999C12.9996 53.9999 15.5 0.999885 49.9998 0.999908Z" fill="url(#paint2_linear)"/>
<path d="M49.9998 0.999908C84.4996 0.999932 87 53.9999 49.9998 53.9999C12.9996 53.9999 15.5 0.999885 49.9998 0.999908Z" stroke="black"/>
<defs>
<linearGradient id="paint0_linear" x1="66" y1="97" x2="8.48318e-07" y2="97" gradientUnits="userSpaceOnUse">
<stop stop-color="#F265FF"/>
<stop offset="1" stop-color="white" stop-opacity="0"/>
</linearGradient>
<linearGradient id="paint1_linear" x1="135" y1="81" x2="63" y2="81.5" gradientUnits="userSpaceOnUse">
<stop stop-color="#F265FF"/>
<stop offset="1" stop-color="white" stop-opacity="0"/>
</linearGradient>
<linearGradient id="paint2_linear" x1="73" y1="27" x2="23" y2="27" gradientUnits="userSpaceOnUse">
<stop stop-color="#F265FF"/>
<stop offset="1" stop-color="white" stop-opacity="0"/>
</linearGradient>
</defs>
</svg>
